<svg xmlns="http://www.w3.org/2000/svg" width="59" height="35">
    <path fill="#FFF" fill-rule="evenodd" d="M58.157 31.585h-4.214v.854c0 1.412-1.135 2.561-2.529 2.561H7.586c-1.394 0-2.529-1.149-2.529-2.561v-.854H.843A.848.848 0 0 1 0 30.732c0-.472.378-.854.843-.854H58.157c.466 0 .843.382.843.854a.847.847 0 0 1-.843.853zm-5.9 0H6.743v.854a.85.85 0 0 0 .843.854h43.828a.849.849 0 0 0 .843-.854v-.854zm.843-2.561H5.9a.848.848 0 0 1-.843-.853c0-12.717 9.518-23.221 21.716-24.598l-.619-2.512a.863.863 0 0 1 .153-.732.838.838 0 0 1 .664-.329h5.058c.259 0 .503.121.663.329.16.207.217.477.153.732l-.619 2.512C44.424 4.95 53.943 15.454 53.943 28.171a.847.847 0 0 1-.843.853zM28.051 1.707l.422 1.708h2.054l.422-1.708h-2.898zM29.5 5.122c-12.266 0-22.298 9.879-22.742 22.195h45.483C51.797 15.001 41.767 5.122 29.5 5.122zm0 2.561c4.622 0 9.146 1.627 12.736 4.581a.863.863 0 0 1 .124 1.202.84.84 0 0 1-1.187.123A18.431 18.431 0 0 0 29.5 9.39a.848.848 0 0 1-.843-.853c0-.472.378-.854.843-.854z"/>
</svg>
