<svg xmlns="http://www.w3.org/2000/svg" width="154" height="68">
    <path fill="#FFF" fill-rule="evenodd" d="M145.648 53.27a4.243 4.243 0 0 0-1.029-.13c-.401 0-.709.093-.923.28a.925.925 0 0 0-.321.731c0 .187.043.35.13.489.086.139.224.274.414.404.189.129.636.363 1.343.7.934.447 1.574.895 1.921 1.343.346.449.519 1 .519 1.651 0 .903-.325 1.614-.974 2.133-.649.52-1.553.779-2.71.779-1.067 0-2.01-.2-2.83-.601V59.08c.674.301 1.245.513 1.712.636.467.123.894.184 1.282.184.465 0 .821-.088 1.07-.266.248-.178.372-.442.372-.793a.879.879 0 0 0-.164-.523c-.109-.153-.27-.3-.482-.441-.212-.141-.644-.367-1.295-.677-.611-.287-1.069-.563-1.374-.827a3.087 3.087 0 0 1-.732-.923c-.182-.351-.273-.761-.273-1.23 0-.884.299-1.579.899-2.085.599-.506 1.427-.759 2.485-.759.519 0 1.015.062 1.486.185.472.123.965.296 1.48.519l-.683 1.648a9.854 9.854 0 0 0-1.323-.458zm-7.831 5.865h-3.643l-.725 2.379h-4.355l-2.386-3.835h-1.127v3.835h-2.12V51.52h2.913c1.358 0 2.362.247 3.014.741.652.495.978 1.246.978 2.253a2.65 2.65 0 0 1-.486 1.569c-.323.458-.781.817-1.374 1.076a503.533 503.533 0 0 0 2.754 4.086l3.433-9.766h2.591l3.541 10.035h-2.283l-.725-2.379zm-10.08-5.578c-.326-.201-.83-.301-1.514-.301h-.642v2.7h.683c.67 0 1.165-.111 1.484-.335.318-.223.478-.574.478-1.053 0-.473-.163-.811-.489-1.011zm8.443.143a10.126 10.126 0 0 1-.181-.67c-.151.584-.581 2.026-1.292 4.328h2.604a632.132 632.132 0 0 1-1.131-3.658zm-17.073-2.18h2.119v9.994h-2.119V51.52zm-7.561 0h5.756v1.736h-3.637v2.194h3.384v1.737h-3.384v2.577h3.637v1.75h-5.756V51.52zm-6.549 10.13c-1.532 0-2.707-.444-3.528-1.333-.82-.888-1.23-2.164-1.23-3.828 0-1.663.411-2.933 1.234-3.811.822-.877 2.002-1.316 3.537-1.316 1.536 0 2.711.442 3.524 1.327.814.884 1.221 2.155 1.221 3.814 0 1.654-.411 2.926-1.231 3.814-.82.889-1.996 1.333-3.527 1.333zm.013-8.524c-.843 0-1.478.284-1.907.851-.428.568-.642 1.41-.642 2.526 0 1.117.212 1.957.635 2.522.424.566 1.058.848 1.901.848 1.69 0 2.536-1.123 2.536-3.37 0-2.251-.841-3.377-2.523-3.377zm-11.895 3.657c0-.223.004-.48.011-.772.006-.292.037-1.067.092-2.324h-.062l-2.577 7.827h-1.941l-2.406-7.841h-.062c.087 1.595.13 2.659.13 3.192v4.649h-1.894V51.52h2.885l2.365 7.642h.041l2.509-7.642h2.885v9.994h-1.976v-4.731zM76.846 51.52h5.755v1.736h-3.636v2.194h3.383v1.737h-3.383v2.577h3.636v1.75h-5.755V51.52zm-6.687 9.994l-2.385-3.835h-1.128v3.835h-2.119V51.52h2.912c1.358 0 2.363.247 3.014.741.652.495.978 1.246.978 2.253 0 .588-.162 1.111-.485 1.569-.324.458-.782.817-1.374 1.076a385.074 385.074 0 0 0 2.939 4.355h-2.352zm-1.356-7.957c-.326-.201-.831-.301-1.515-.301h-.642v2.7h.683c.67 0 1.165-.111 1.484-.335.319-.223.478-.574.478-1.053 0-.473-.163-.811-.488-1.011zm-8.262 5.578h-3.644l-.724 2.379H53.89l3.527-10.035h2.591l3.541 10.035h-2.283l-.725-2.379zM58.904 53.7a9.534 9.534 0 0 1-.181-.67c-.151.584-.581 2.026-1.292 4.328h2.604a632.132 632.132 0 0 1-1.131-3.658zm-7.038-.362a3.369 3.369 0 0 0-1.114-.198c-.798 0-1.415.299-1.853.899-.437.599-.656 1.434-.656 2.505 0 2.229.836 3.343 2.509 3.343.701 0 1.551-.176 2.549-.527v1.778c-.746.311-1.572.479-2.477.507l-.127.286c.337.109.606.279.807.509.2.23.3.491.3.783 0 .583-.172 1.005-.516 1.264-.344.26-.876.39-1.596.39-.355 0-.688-.048-.998-.144v-1.148c.123.032.288.064.496.096.207.032.368.048.482.048.328 0 .492-.142.492-.424 0-.379-.379-.625-1.135-.739l.505-.997c-.965-.165-1.738-.578-2.317-1.241-.77-.882-1.155-2.148-1.155-3.798 0-1.039.189-1.949.568-2.731.378-.781.921-1.38 1.63-1.797.709-.417 1.539-.626 2.492-.626.97 0 1.946.235 2.925.704l-.683 1.723c-.374-.178-.75-.333-1.128-.465zM39.957 61.65c-1.531 0-2.707-.444-3.527-1.333-.82-.888-1.23-2.164-1.23-3.828 0-1.663.411-2.933 1.234-3.811.822-.877 2.001-1.316 3.537-1.316s2.711.442 3.524 1.327c.814.884 1.22 2.155 1.22 3.814 0 1.654-.41 2.926-1.23 3.814-.821.889-1.996 1.333-3.528 1.333zm.014-8.524c-.843 0-1.479.284-1.907.851-.429.568-.643 1.41-.643 2.526 0 1.117.212 1.957.636 2.522.424.566 1.057.848 1.9.848 1.691 0 2.537-1.123 2.537-3.37 0-2.251-.841-3.377-2.523-3.377zm-8.538 3.657c0-.223.003-.48.01-.772.007-.292.038-1.067.092-2.324h-.061l-2.577 7.827h-1.942l-2.406-7.841h-.062c.087 1.595.13 2.659.13 3.192v4.649h-1.893V51.52h2.885l2.365 7.642h.041l2.509-7.642h2.884v9.994h-1.975v-4.731zM15.095 51.52h2.119v8.244h4.053v1.75h-6.172V51.52zm-3.986 7.615H7.465l-.724 2.379H4.458l3.527-10.035h2.591l3.541 10.035h-2.283l-.725-2.379zM9.472 53.7a9.534 9.534 0 0 1-.181-.67c-.151.584-.581 2.026-1.292 4.328h2.604A632.132 632.132 0 0 1 9.472 53.7zM90.63 12.058l-6.594 6.74a4.532 4.532 0 0 1-5.057 1.002l-.052-.026-.029-.016-15.652 15.996a.51.51 0 0 1-.728 0l-1.652-1.688a.52.52 0 0 1-.002-.724l13.3-13.775L61.445 6.481c-.486 1.201-1.145 3.995 1.578 6.784l7.814 8.003-.729.726-7.814-8.003c-4.109-4.21-1.449-8.621-1.422-8.666a.51.51 0 0 1 .799-.087l13.574 13.966a.52.52 0 0 1 .001.722L61.947 33.7l.935.956L78.446 18.75a.508.508 0 0 1 .616-.086l.343.196a3.52 3.52 0 0 0 3.902-.787l6.595-6.741c.051-.053.073-.075.001-.157l-.396-.406a.192.192 0 0 0-.047-.037.337.337 0 0 0-.08.047l-5.078 5.189a.51.51 0 0 1-.728 0l-1.049-1.072a.52.52 0 0 1 .001-.726l5.077-5.187c.051-.054.073-.076.001-.158l-.397-.405a.168.168 0 0 0-.046-.037.308.308 0 0 0-.081.048l-5.078 5.187a.521.521 0 0 1-.727 0l-1.05-1.071a.52.52 0 0 1 0-.726l5.079-5.189c.05-.052.073-.075.001-.158l-.397-.405a.191.191 0 0 0-.045-.037.316.316 0 0 0-.082.048l-5.713 5.838-.881.901a3.725 3.725 0 0 0-.762 4.03.52.52 0 0 1-.276.675.51.51 0 0 1-.67-.279c-.73-1.776-.346-3.798.979-5.151l.882-.903 5.713-5.838c.058-.059.368-.353.816-.353.197 0 .49.06.767.343l.405.415c.313.32.567 1.01-.01 1.6l-4.722 4.826.33.336 4.713-4.817c.058-.059.368-.353.815-.353h.001c.197 0 .49.06.767.343l.405.414c.313.32.568 1.01-.01 1.601l-4.722 4.825.33.337 4.714-4.817c.057-.058.366-.352.814-.352h.001c.197 0 .49.059.767.343l.405.414c.313.319.568 1.009-.009 1.6zM76.398 23.897L87.01 34.748l.87-.89-10.62-10.861a.52.52 0 0 1 .005-.73.508.508 0 0 1 .724.004l10.974 11.224a.52.52 0 0 1 0 .726l-1.589 1.625a.514.514 0 0 1-.364.154.514.514 0 0 1-.365-.154L75.669 24.623a.521.521 0 0 1 .005-.731.51.51 0 0 1 .724.005z"/>
</svg>
