<svg xmlns="http://www.w3.org/2000/svg" width="265" height="2">
    <path fill="#FFF" fill-rule="evenodd" d="M6.311 1.67c4.222.229 12.676.331 25.363.307 13.149-.006 30.184-.001 51.096.017 20.901.018 42.397.001 64.489-.049 22.081-.051 43.701-.149 64.848-.296 21.148-.146 38.774-.386 52.88-.72.011-.397-1.744-.632-5.266-.704-3.522-.072-9.511-.112-17.968-.119-7.046-.058-16.912-.092-29.598-.103-12.686-.01-26.55-.013-41.582-.009-15.043.005-30.901.026-47.574.064C106.314.096 90.224.13 74.718.16S44.994.221 32.076.253C19.147.286 8.927.299 1.417.292c0 .018-.245.1-.712.246-.478.147-.712.246-.713.298-.01.328 2.097.606 6.319.834z" opacity=".502"/>
</svg>
