<svg xmlns="http://www.w3.org/2000/svg" width="42" height="42">
    <path fill="#4795BD" fill-rule="evenodd" d="M21.419 7.696V2.55L14.5 9.411l6.919 6.862v-5.146c5.726 0 10.378 4.614 10.378 10.293a9.98 9.98 0 0 1-1.212 4.803l2.526 2.504a13.507 13.507 0 0 0 2.146-7.307c0-7.583-6.193-13.724-13.838-13.724zm0 24.016c-5.726 0-10.377-4.615-10.377-10.292 0-1.733.43-3.38 1.211-4.804l-2.526-2.504a13.516 13.516 0 0 0-2.146 7.308c0 7.581 6.192 13.722 13.838 13.722v5.147l6.919-6.862-6.919-6.862v5.147z"/>
</svg>
