<svg xmlns="http://www.w3.org/2000/svg" width="49" height="30">
    <path fill="#FFF" fill-rule="evenodd" d="M48.943 28.171a.847.847 0 0 1-.843.853H.9a.848.848 0 0 1-.843-.853c0-12.717 9.518-23.221 21.716-24.598l-.619-2.512a.863.863 0 0 1 .153-.732.838.838 0 0 1 .664-.329h5.058c.259 0 .503.121.663.329.16.207.217.477.153.732l-.619 2.512C39.424 4.95 48.943 15.454 48.943 28.171zM23.051 1.707l.422 1.708h2.054l.422-1.708h-2.898zM24.5 5.122c-12.266 0-22.298 9.879-22.742 22.195h45.483C46.797 15.001 36.767 5.122 24.5 5.122zm12.86 8.344a.84.84 0 0 1-1.187.123A18.431 18.431 0 0 0 24.5 9.39a.848.848 0 0 1-.843-.853c0-.472.378-.854.843-.854 4.622 0 9.146 1.627 12.736 4.582a.862.862 0 0 1 .124 1.201z"/>
</svg>
