<svg xmlns="http://www.w3.org/2000/svg" width="154" height="68">
    <text fill="#FFF" font-family="Open Sans" font-size="55.228" font-weight="bold" transform="matrix(.2535 0 0 .2535 4.427 61.922)">
        ALMOÇAR EM OEIRAS
    </text>
    <path fill="#FFF" fill-rule="evenodd" d="M90.63 12.058l-6.594 6.74a4.532 4.532 0 0 1-5.057 1.002l-.052-.026-.029-.017-15.652 15.997a.51.51 0 0 1-.728 0l-1.652-1.688a.52.52 0 0 1-.002-.724l13.3-13.775L61.445 6.481c-.486 1.201-1.145 3.995 1.578 6.784l7.814 8.003-.729.726-7.814-8.003c-4.109-4.21-1.449-8.621-1.422-8.666a.511.511 0 0 1 .799-.087l13.574 13.966a.52.52 0 0 1 .001.722L61.947 33.7l.935.956L78.446 18.75a.508.508 0 0 1 .616-.086l.343.196a3.52 3.52 0 0 0 3.902-.787l6.595-6.741c.051-.053.073-.075.001-.157l-.396-.406a.192.192 0 0 0-.047-.037.29.29 0 0 0-.08.047l-5.078 5.189a.51.51 0 0 1-.728 0l-1.049-1.072a.52.52 0 0 1 .001-.726l5.077-5.187c.051-.054.072-.076.001-.158l-.397-.405a.168.168 0 0 0-.046-.037.308.308 0 0 0-.081.048l-5.078 5.187a.521.521 0 0 1-.727 0l-1.05-1.071a.52.52 0 0 1 0-.726l5.079-5.189c.05-.052.073-.075.001-.158l-.397-.405a.191.191 0 0 0-.045-.037.316.316 0 0 0-.082.048l-5.713 5.838-.881.901a3.723 3.723 0 0 0-.762 4.03.519.519 0 0 1-.277.675.51.51 0 0 1-.669-.279c-.73-1.776-.346-3.798.978-5.151l.883-.903 5.713-5.838c.057-.059.368-.353.816-.353.197 0 .49.06.767.343l.405.415c.313.32.567 1.01-.01 1.6l-4.722 4.826.33.336 4.713-4.817c.058-.059.368-.353.815-.353h.001c.197 0 .49.06.767.343l.405.414c.312.32.568 1.01-.01 1.601l-4.722 4.825.33.337 4.714-4.817c.057-.058.366-.352.814-.352h.001c.197 0 .49.059.767.343l.405.414c.313.319.568 1.009-.009 1.6zM76.398 23.897l10.611 10.851.871-.89-10.62-10.861a.52.52 0 0 1 .004-.73.51.51 0 0 1 .725.004l10.974 11.224a.52.52 0 0 1 0 .726l-1.589 1.625a.514.514 0 0 1-.365.154.514.514 0 0 1-.364-.154L75.669 24.623a.521.521 0 0 1 .005-.731.51.51 0 0 1 .724.005z"/>
</svg>
